# xmcd CD database file
#
# Track frame offsets:
#	150
#	7540
#	41324
#	46065
#	50739
#	63244
#	66116
#	66416
#	68633
#	69173
#	108873
#	145161
#	159245
#	161405
#	164388
#	166956
#	173041
#	186414
#	193355
#	201370
#	227288
#	229288
#	245453
#	273786
#
# Disc length: 4110 seconds
#
# Revision: 0
# Processed by: cddbd v1.5.1PL0 Copyright (c) Steve Scherf et al.
# Submitted via: CDex 1.51
#
DISCID=3f100c18
DTITLE=Friday Grass Jazz Quartet - Mao Jazz
DYEAR=2003
DGENRE=Jazz
TTITLE0=jazz overture
TTITLE1=perspiration (dopros)
TTITLE2=Laos
TTITLE3=monday concrete
TTITLE4=perpetuum mobile
TTITLE5=S389 beta version
TTITLE6=schlager
TTITLE7=dolce pisca
TTITLE8=orange zorilla
TTITLE9=mao jazz
TTITLE10=thai pilot
TTITLE11=kaddafi noise
TTITLE12=intro
TTITLE13=chokovodka
TTITLE14=mozarella
TTITLE15=technorama
TTITLE16=night lake drinking song
TTITLE17=fgjazzq
TTITLE18=rotten sushi
TTITLE19=fat reacoon
TTITLE20=unitazz
TTITLE21=toy stalin
TTITLE22=bonus
TTITLE23=superbonus
EXTD=YEAR: 2003
EXTT0=
EXTT1=
EXTT2=
EXTT3=
EXTT4=
EXTT5=
EXTT6=
EXTT7=
EXTT8=
EXTT9=
EXTT10=
EXTT11=
EXTT12=
EXTT13=
EXTT14=
EXTT15=
EXTT16=
EXTT17=
EXTT18=
EXTT19=
EXTT20=
EXTT21=
EXTT22=
EXTT23=
PLAYORDER=
